<svg width="1427" height="269" viewBox="0 0 1427 269" fill="none" xmlns="http://www.w3.org/2000/svg">
<mask id="path-1-inside-1_78_963" fill="white">
<path d="M86.6787 0C118.303 0 142.535 10.8786 159.374 32.6359C176.295 54.3932 184.756 85.4691 184.756 125.864H109.596C109.596 104.928 107.748 89.6974 104.052 80.1735C100.437 70.6495 94.6464 65.8876 86.6787 65.8876C80.6823 65.8876 75.9181 68.2686 72.386 73.0305C68.854 77.7925 67.0879 84.1965 67.0879 92.2426C67.0879 97.0867 67.8683 101.808 69.4289 106.405C70.9896 111.003 72.8378 114.985 74.9735 118.351C77.1913 121.718 80.1073 125.248 83.7216 128.943C87.4179 132.637 90.5804 135.593 93.2089 137.81C95.9196 139.944 99.3284 142.572 103.436 145.692L115.017 154.436C129.803 165.602 140.646 174.51 147.545 181.16C168.82 201.604 181.634 224.428 185.988 249.634C187.138 256.448 187.713 263.509 187.713 270.816C187.713 300.373 178.8 323.814 160.976 341.138C143.151 358.379 118.919 367 88.2804 367C55.0131 367 29.7957 356.121 12.6281 334.364C-4.45729 312.607 -13 280.464 -13 237.934H62.1594C62.1594 259.774 64.1719 275.784 68.1968 285.964C72.2218 296.063 78.5467 301.112 87.1715 301.112C93.9071 301.112 99.2874 298.444 103.312 293.107C107.419 287.771 109.473 280.792 109.473 272.171C109.473 267.327 108.61 262.524 106.885 257.762C105.243 253 103.271 248.854 100.971 245.323C98.7534 241.793 95.591 237.893 91.4839 233.624C87.3769 229.354 83.8448 225.947 80.8877 223.402C78.0127 220.857 74.111 217.573 69.1825 213.55L57.7238 204.313C43.4312 192.901 32.7939 183.582 25.8118 176.357C2.73009 152.465 -9.22149 125.864 -10.0429 96.553C-10.0429 95.4857 -10.0429 94.4183 -10.0429 93.351C-10.0429 74.9599 -6.05905 58.7036 1.90867 44.5819C9.95854 30.4602 21.2941 19.4994 35.9152 11.6997C50.6186 3.89989 67.5397 0 86.6787 0Z"/>
<path d="M295.08 0C326.705 0 350.937 10.8786 367.776 32.6359C384.697 54.3932 393.157 85.4691 393.157 125.864H317.998C317.998 104.928 316.15 89.6974 312.453 80.1735C308.839 70.6495 303.048 65.8876 295.08 65.8876C289.084 65.8876 284.32 68.2686 280.788 73.0305C277.256 77.7925 275.49 84.1965 275.49 92.2426C275.49 97.0867 276.27 101.808 277.831 106.405C279.391 111.003 281.24 114.985 283.375 118.351C285.593 121.718 288.509 125.248 292.123 128.943C295.82 132.637 298.982 135.593 301.611 137.81C304.321 139.944 307.73 142.572 311.837 145.692L323.419 154.436C338.205 165.602 349.047 174.51 355.947 181.16C377.222 201.604 390.036 224.428 394.39 249.634C395.539 256.448 396.114 263.509 396.114 270.816C396.114 300.373 387.202 323.814 369.377 341.138C351.553 358.379 327.321 367 296.682 367C263.415 367 238.198 356.121 221.03 334.364C203.945 312.607 195.402 280.464 195.402 237.934H270.561C270.561 259.774 272.574 275.784 276.599 285.964C280.624 296.063 286.948 301.112 295.573 301.112C302.309 301.112 307.689 298.444 311.714 293.107C315.821 287.771 317.875 280.792 317.875 272.171C317.875 267.327 317.012 262.524 315.287 257.762C313.644 253 311.673 248.854 309.373 245.323C307.155 241.793 303.993 237.893 299.886 233.624C295.779 229.354 292.247 225.947 289.29 223.402C286.415 220.857 282.513 217.573 277.584 213.55L266.126 204.313C251.833 192.901 241.196 183.582 234.214 176.357C211.132 152.465 199.18 125.864 198.359 96.553C198.359 95.4857 198.359 94.4183 198.359 93.351C198.359 74.9599 202.343 58.7036 210.311 44.5819C218.36 30.4602 229.696 19.4994 244.317 11.6997C259.02 3.89989 275.942 0 295.08 0Z"/>
<path d="M409.695 256.161V7.38925H491.015V244.215C491.015 263.181 492.863 276.482 496.559 284.117C500.256 291.671 506.498 295.447 515.288 295.447C524.077 295.447 530.319 291.671 534.016 284.117C537.794 276.482 539.684 263.181 539.684 244.215V7.38925H621.004V256.161C621.004 291.876 611.64 319.298 592.911 338.428C574.183 357.476 548.308 367 515.288 367C482.267 367 456.392 357.476 437.664 338.428C419.018 319.38 409.695 291.958 409.695 256.161Z"/>
<path d="M640.236 359.611V7.38925H734.986C770.882 7.38925 799.344 18.0216 820.373 39.2862C841.401 60.5509 851.915 89.4101 851.915 125.864C851.915 149.509 847.356 170.158 838.238 187.81C829.203 205.463 816.265 219.051 799.426 228.575C782.587 238.098 762.873 242.86 740.285 242.86H721.556V359.611H640.236ZM721.556 176.357H735.972C748.211 176.357 756.959 172.416 762.216 164.534C767.556 156.57 770.225 143.352 770.225 124.879C770.225 106.652 767.638 93.5973 762.463 85.7154C757.288 77.8335 748.745 73.8926 736.835 73.8926H721.556V176.357Z"/>
<path d="M867.409 359.611V7.38925H962.159C998.055 7.38925 1026.52 18.0216 1047.54 39.2862C1068.57 60.5509 1079.09 89.4101 1079.09 125.864C1079.09 149.509 1074.53 170.158 1065.41 187.81C1056.38 205.463 1043.44 219.051 1026.6 228.575C1009.76 238.098 990.046 242.86 967.457 242.86H948.729V359.611H867.409ZM948.729 176.357H963.145C975.384 176.357 984.132 172.416 989.389 164.534C994.728 156.57 997.398 143.352 997.398 124.879C997.398 106.652 994.81 93.5973 989.635 85.7154C984.46 77.8335 975.918 73.8926 964.007 73.8926H948.729V176.357Z"/>
<path d="M1094.58 7.38925H1175.9V293.107H1239.36V359.611H1094.58V7.38925Z"/>
<path d="M1344.2 7.38925H1427L1355.41 261.087V359.611H1274.09V262.319L1201.77 7.38925H1288.39L1306.01 126.356L1315.37 204.19H1316.6L1326.09 126.603L1344.2 7.38925Z"/>
</mask>
<path d="M86.6787 0C118.303 0 142.535 10.8786 159.374 32.6359C176.295 54.3932 184.756 85.4691 184.756 125.864H109.596C109.596 104.928 107.748 89.6974 104.052 80.1735C100.437 70.6495 94.6464 65.8876 86.6787 65.8876C80.6823 65.8876 75.9181 68.2686 72.386 73.0305C68.854 77.7925 67.0879 84.1965 67.0879 92.2426C67.0879 97.0867 67.8683 101.808 69.4289 106.405C70.9896 111.003 72.8378 114.985 74.9735 118.351C77.1913 121.718 80.1073 125.248 83.7216 128.943C87.4179 132.637 90.5804 135.593 93.2089 137.81C95.9196 139.944 99.3284 142.572 103.436 145.692L115.017 154.436C129.803 165.602 140.646 174.51 147.545 181.16C168.82 201.604 181.634 224.428 185.988 249.634C187.138 256.448 187.713 263.509 187.713 270.816C187.713 300.373 178.8 323.814 160.976 341.138C143.151 358.379 118.919 367 88.2804 367C55.0131 367 29.7957 356.121 12.6281 334.364C-4.45729 312.607 -13 280.464 -13 237.934H62.1594C62.1594 259.774 64.1719 275.784 68.1968 285.964C72.2218 296.063 78.5467 301.112 87.1715 301.112C93.9071 301.112 99.2874 298.444 103.312 293.107C107.419 287.771 109.473 280.792 109.473 272.171C109.473 267.327 108.61 262.524 106.885 257.762C105.243 253 103.271 248.854 100.971 245.323C98.7534 241.793 95.591 237.893 91.4839 233.624C87.3769 229.354 83.8448 225.947 80.8877 223.402C78.0127 220.857 74.111 217.573 69.1825 213.55L57.7238 204.313C43.4312 192.901 32.7939 183.582 25.8118 176.357C2.73009 152.465 -9.22149 125.864 -10.0429 96.553C-10.0429 95.4857 -10.0429 94.4183 -10.0429 93.351C-10.0429 74.9599 -6.05905 58.7036 1.90867 44.5819C9.95854 30.4602 21.2941 19.4994 35.9152 11.6997C50.6186 3.89989 67.5397 0 86.6787 0Z" stroke="#E8E8E8" stroke-width="4" mask="url(#path-1-inside-1_78_963)"/>
<path d="M295.08 0C326.705 0 350.937 10.8786 367.776 32.6359C384.697 54.3932 393.157 85.4691 393.157 125.864H317.998C317.998 104.928 316.15 89.6974 312.453 80.1735C308.839 70.6495 303.048 65.8876 295.08 65.8876C289.084 65.8876 284.32 68.2686 280.788 73.0305C277.256 77.7925 275.49 84.1965 275.49 92.2426C275.49 97.0867 276.27 101.808 277.831 106.405C279.391 111.003 281.24 114.985 283.375 118.351C285.593 121.718 288.509 125.248 292.123 128.943C295.82 132.637 298.982 135.593 301.611 137.81C304.321 139.944 307.73 142.572 311.837 145.692L323.419 154.436C338.205 165.602 349.047 174.51 355.947 181.16C377.222 201.604 390.036 224.428 394.39 249.634C395.539 256.448 396.114 263.509 396.114 270.816C396.114 300.373 387.202 323.814 369.377 341.138C351.553 358.379 327.321 367 296.682 367C263.415 367 238.198 356.121 221.03 334.364C203.945 312.607 195.402 280.464 195.402 237.934H270.561C270.561 259.774 272.574 275.784 276.599 285.964C280.624 296.063 286.948 301.112 295.573 301.112C302.309 301.112 307.689 298.444 311.714 293.107C315.821 287.771 317.875 280.792 317.875 272.171C317.875 267.327 317.012 262.524 315.287 257.762C313.644 253 311.673 248.854 309.373 245.323C307.155 241.793 303.993 237.893 299.886 233.624C295.779 229.354 292.247 225.947 289.29 223.402C286.415 220.857 282.513 217.573 277.584 213.55L266.126 204.313C251.833 192.901 241.196 183.582 234.214 176.357C211.132 152.465 199.18 125.864 198.359 96.553C198.359 95.4857 198.359 94.4183 198.359 93.351C198.359 74.9599 202.343 58.7036 210.311 44.5819C218.36 30.4602 229.696 19.4994 244.317 11.6997C259.02 3.89989 275.942 0 295.08 0Z" stroke="#E8E8E8" stroke-width="4" mask="url(#path-1-inside-1_78_963)"/>
<path d="M409.695 256.161V7.38925H491.015V244.215C491.015 263.181 492.863 276.482 496.559 284.117C500.256 291.671 506.498 295.447 515.288 295.447C524.077 295.447 530.319 291.671 534.016 284.117C537.794 276.482 539.684 263.181 539.684 244.215V7.38925H621.004V256.161C621.004 291.876 611.64 319.298 592.911 338.428C574.183 357.476 548.308 367 515.288 367C482.267 367 456.392 357.476 437.664 338.428C419.018 319.38 409.695 291.958 409.695 256.161Z" stroke="#E8E8E8" stroke-width="4" mask="url(#path-1-inside-1_78_963)"/>
<path d="M640.236 359.611V7.38925H734.986C770.882 7.38925 799.344 18.0216 820.373 39.2862C841.401 60.5509 851.915 89.4101 851.915 125.864C851.915 149.509 847.356 170.158 838.238 187.81C829.203 205.463 816.265 219.051 799.426 228.575C782.587 238.098 762.873 242.86 740.285 242.86H721.556V359.611H640.236ZM721.556 176.357H735.972C748.211 176.357 756.959 172.416 762.216 164.534C767.556 156.57 770.225 143.352 770.225 124.879C770.225 106.652 767.638 93.5973 762.463 85.7154C757.288 77.8335 748.745 73.8926 736.835 73.8926H721.556V176.357Z" stroke="#E8E8E8" stroke-width="4" mask="url(#path-1-inside-1_78_963)"/>
<path d="M867.409 359.611V7.38925H962.159C998.055 7.38925 1026.52 18.0216 1047.54 39.2862C1068.57 60.5509 1079.09 89.4101 1079.09 125.864C1079.09 149.509 1074.53 170.158 1065.41 187.81C1056.38 205.463 1043.44 219.051 1026.6 228.575C1009.76 238.098 990.046 242.86 967.457 242.86H948.729V359.611H867.409ZM948.729 176.357H963.145C975.384 176.357 984.132 172.416 989.389 164.534C994.728 156.57 997.398 143.352 997.398 124.879C997.398 106.652 994.81 93.5973 989.635 85.7154C984.46 77.8335 975.918 73.8926 964.007 73.8926H948.729V176.357Z" stroke="#E8E8E8" stroke-width="4" mask="url(#path-1-inside-1_78_963)"/>
<path d="M1094.58 7.38925H1175.9V293.107H1239.36V359.611H1094.58V7.38925Z" stroke="#E8E8E8" stroke-width="4" mask="url(#path-1-inside-1_78_963)"/>
<path d="M1344.2 7.38925H1427L1355.41 261.087V359.611H1274.09V262.319L1201.77 7.38925H1288.39L1306.01 126.356L1315.37 204.19H1316.6L1326.09 126.603L1344.2 7.38925Z" stroke="#E8E8E8" stroke-width="4" mask="url(#path-1-inside-1_78_963)"/>
</svg>
