<svg width="139" height="41" viewBox="0 0 139 41" fill="none" xmlns="http://www.w3.org/2000/svg">
<g clip-path="url(#clip0_78_977)">
<path d="M19.6934 16.9551H19.4456C18.6068 16.9551 17.8442 16.8597 17.196 16.6878C16.5478 16.516 16.014 16.2869 15.6327 16.0196C15.2514 15.7523 14.9273 15.4277 14.6794 15.0649C14.4316 14.7021 14.26 14.3394 14.1647 13.9766C14.0694 13.6329 14.0312 13.2701 14.0312 12.9073V12.6019C14.0312 12.22 14.0694 11.8572 14.1647 11.5135C14.26 11.1698 14.4316 10.8262 14.6794 10.4443C14.9273 10.0815 15.2704 9.75693 15.6708 9.50872C16.0712 9.24141 16.624 9.03138 17.3294 8.85954C18.0158 8.6877 18.8355 8.61133 19.7316 8.61133H20.151C21.0852 8.61133 21.9049 8.6877 22.6294 8.84045C23.3348 8.9932 23.8876 9.16504 24.2689 9.37506C24.6502 9.58509 24.9743 9.8524 25.2031 10.1388C25.4509 10.4443 25.6035 10.7116 25.6797 10.9598C25.756 11.208 25.7941 11.4562 25.7941 11.7236V11.7426H22.5913C22.5722 11.6854 22.5531 11.609 22.515 11.5517C22.4769 11.4944 22.4006 11.399 22.2862 11.3035C22.1718 11.1889 22.0193 11.1126 21.8668 11.0362C21.6952 10.9598 21.4474 10.8834 21.1233 10.8262C20.7992 10.7689 20.4179 10.7307 19.9794 10.7307C18.1301 10.7307 17.196 11.399 17.196 12.7164V12.831C17.196 13.4038 17.4247 13.8811 17.8823 14.2821C18.3399 14.683 19.0262 14.874 19.9603 14.874C20.3607 14.874 20.7229 14.8549 21.047 14.7976C21.3711 14.7403 21.638 14.683 21.8287 14.6067C22.0193 14.5303 22.1909 14.4348 22.3434 14.3394C22.4769 14.2439 22.5722 14.1675 22.6294 14.072C22.6866 13.9957 22.7056 13.9193 22.7056 13.862H19.8841V12.2964H25.8513V16.8024H23.9067C23.8114 16.3823 23.697 16.0005 23.5254 15.695C22.7628 16.5351 21.4855 16.9551 19.6934 16.9551Z" fill="black"/>
<path d="M26.8242 8.74512H35.5558V10.7117H29.8746V11.7237H35.4414V13.7094H29.8746V16.8025H26.8433V8.74512H26.8242Z" fill="black"/>
<path d="M39.4251 16.8025H35.7266L39.406 12.6593L35.841 8.74512H39.7683L41.8082 11.1127L43.8671 8.74512H47.5085L44.0387 12.6402L47.6801 16.8025H43.9053L41.6557 14.2822L39.4251 16.8025Z" fill="black"/>
<path d="M51.3594 16.8025V8.74512H55.5727L58.032 13.2703L60.5485 8.74512H64.5902V16.8025H61.5589V11.781L58.7374 16.8025H57.1741L54.3716 11.781V16.8025H51.3594Z" fill="black"/>
<path d="M73.8944 16.8025L73.2653 15.5042H68.6707L68.0607 16.8025H64.9531L68.9376 8.74512H73.0746L77.2879 16.8025H73.8944ZM72.293 13.4803L70.9394 10.7117L69.624 13.4803H72.293Z" fill="black"/>
<path d="M77.6113 16.8025V8.74512H83.3116C84.2077 8.74512 84.9893 8.82149 85.6947 8.95515C86.381 9.10789 86.953 9.29883 87.3724 9.52795C87.7918 9.75707 88.154 10.0626 88.421 10.3872C88.6879 10.7308 88.8785 11.0745 88.9738 11.4182C89.0692 11.7619 89.1263 12.1437 89.1263 12.5447V12.8693C89.1263 13.2703 89.0882 13.633 88.9929 13.9767C88.8976 14.3204 88.726 14.6641 88.4591 15.0268C88.1922 15.3896 87.849 15.676 87.4487 15.9242C87.0292 16.1725 86.4764 16.3825 85.771 16.5352C85.0656 16.688 84.2458 16.7643 83.3307 16.7643H77.6113V16.8025ZM80.6807 10.8645V14.6832H82.9685C84.9512 14.6832 85.9426 14.0531 85.9426 12.7929V12.7356C85.9426 11.4946 84.9512 10.8645 82.9685 10.8645H80.6807Z" fill="black"/>
<path d="M89.8711 8.74512H98.7552V10.7117H92.8833V11.7237H98.6408V13.6903H92.8833V14.7977H98.8505V16.8025H89.8711V8.74512Z" fill="black"/>
<path d="M103.025 16.8025V8.74512H110.594C111.681 8.74512 112.443 8.91696 112.901 9.26064C113.358 9.60432 113.568 10.0435 113.568 10.5781V10.6926C113.568 11.1318 113.416 11.4946 113.13 11.7619C112.844 12.0292 112.52 12.201 112.176 12.2774C112.386 12.3347 112.596 12.392 112.767 12.4874C112.958 12.5829 113.149 12.6975 113.358 12.8502C113.568 13.0029 113.721 13.213 113.854 13.4612C113.968 13.7285 114.026 14.0149 114.026 14.3586V14.4922C114.026 16.0388 112.901 16.8216 110.632 16.8216H103.025V16.8025ZM109.66 10.5781H106.095V11.7237H109.66C110.213 11.7237 110.48 11.5328 110.48 11.17V11.1509C110.48 10.7499 110.213 10.5781 109.66 10.5781ZM109.851 13.5185H106.095V14.9123H109.851C110.48 14.9123 110.804 14.6832 110.804 14.2249V14.1867C110.804 13.7476 110.499 13.5185 109.851 13.5185Z" fill="black"/>
<path d="M117.589 16.8025V13.7667L113.186 8.74512H116.865L119.21 11.5328L121.593 8.74512H124.948L120.64 13.7858V16.8025H117.589Z" fill="black"/>
<path d="M22.7438 31.5043H21.2949C16.4525 31.5043 14.0312 30.0914 14.0312 27.2655V27.1128H19.0262C19.1024 28.2393 20.1129 28.793 22.0003 28.793H22.1528C22.7628 28.793 23.2776 28.7548 23.6779 28.6975C24.0783 28.6403 24.3833 28.5448 24.574 28.4493C24.7646 28.3348 24.8981 28.2202 24.9743 28.1056C25.0506 27.9911 25.0697 27.8383 25.0697 27.6856V27.6665C25.0697 27.4374 25.0125 27.2655 24.8981 27.1319C24.7837 26.9982 24.5168 26.8837 24.0974 26.7882C23.6779 26.6927 23.0679 26.6164 22.2672 26.5973L20.0557 26.54C16.1665 26.4254 14.2028 25.2416 14.2028 22.9504V22.7977C14.2028 22.3776 14.26 21.9957 14.3744 21.6712C14.4888 21.3275 14.6985 21.0029 15.0226 20.6783C15.3276 20.3537 15.7471 20.0864 16.2427 19.8764C16.7384 19.6663 17.4057 19.4945 18.2255 19.3609C19.0452 19.2272 19.9985 19.1699 21.0661 19.1699H22.4959C27.3193 19.1699 29.7405 20.4301 29.7405 22.9313V23.065H24.7837C24.6884 22.2249 23.7351 21.8048 21.9049 21.8048H21.7524C21.0089 21.8048 20.437 21.843 20.0175 21.9385C19.6172 22.0339 19.3693 22.1294 19.274 22.244C19.1787 22.3585 19.1215 22.5113 19.1215 22.6831V22.7022C19.1215 22.8931 19.1787 23.0268 19.2931 23.1604C19.4075 23.275 19.6553 23.3896 20.0557 23.4659C20.456 23.5614 21.0089 23.5996 21.7143 23.6187L23.8686 23.676C26.1182 23.7332 27.7387 24.0578 28.711 24.6115C29.6833 25.1653 30.1599 26.0626 30.1599 27.2655V27.4946C30.1599 27.9338 30.1027 28.3348 30.0074 28.6975C29.893 29.0603 29.6833 29.4231 29.3592 29.7859C29.0351 30.1486 28.6157 30.4732 28.0819 30.7214C27.5481 30.9696 26.8427 31.1797 25.9276 31.3324C25.0125 31.4279 23.9448 31.5043 22.7438 31.5043Z" fill="black"/>
<path d="M39.3864 31.5043H37.9374C33.095 31.5043 30.6738 30.0914 30.6738 27.2655V27.1128H35.6497C35.7259 28.2393 36.7364 28.793 38.6238 28.793H38.7763C39.3864 28.793 39.9011 28.7548 40.3015 28.6975C40.7018 28.6403 41.0068 28.5448 41.1975 28.4493C41.3881 28.3348 41.5216 28.2202 41.5978 28.1056C41.6741 27.9911 41.6932 27.8383 41.6932 27.6856V27.6665C41.6932 27.4374 41.636 27.2655 41.5216 27.1319C41.4072 26.9982 41.1403 26.8837 40.7209 26.7882C40.3015 26.6927 39.6914 26.6164 38.8907 26.5973L36.6792 26.54C32.79 26.4254 30.8263 25.2416 30.8263 22.9504V22.7977C30.8263 22.3776 30.8835 21.9957 30.9979 21.6712C31.1123 21.3275 31.322 21.0029 31.6461 20.6783C31.9512 20.3537 32.3706 20.0864 32.8663 19.8764C33.3619 19.6663 34.0292 19.4945 34.849 19.3609C35.6688 19.2272 36.622 19.1699 37.6896 19.1699H39.1194C43.9428 19.1699 46.364 20.4301 46.364 22.9313V23.065H41.4072C41.3119 22.2249 40.3586 21.8048 38.5284 21.8048H38.3759C37.6324 21.8048 37.0605 21.843 36.641 21.9385C36.2407 22.0339 35.9929 22.1294 35.8975 22.244C35.8022 22.3585 35.745 22.5113 35.745 22.6831V22.7022C35.745 22.8931 35.8022 23.0268 35.9166 23.1604C36.031 23.275 36.2788 23.3896 36.6792 23.4659C37.0795 23.5614 37.6324 23.5996 38.3378 23.6187L40.4921 23.676C42.7417 23.7332 44.3622 24.0578 45.3345 24.6115C46.3068 25.1653 46.7834 26.0626 46.7834 27.2655V27.4946C46.7834 27.9338 46.7262 28.3348 46.6309 28.6975C46.5165 29.0603 46.3068 29.4231 45.9827 29.7859C45.6586 30.1486 45.2392 30.4732 44.7054 30.7214C44.1716 30.9696 43.4662 31.1797 42.5511 31.3324C41.636 31.4279 40.5874 31.5043 39.3864 31.5043Z" fill="black"/>
<path d="M47.623 25.0507V19.3608H52.1795V24.707C52.1795 25.108 52.2367 25.4898 52.332 25.8335C52.4464 26.1772 52.618 26.5209 52.8658 26.8455C53.1136 27.17 53.4949 27.4374 53.9906 27.6283C54.5054 27.8192 55.1154 27.9147 55.8208 27.9147C56.5262 27.9147 57.1363 27.8192 57.632 27.6283C58.1276 27.4374 58.5089 27.17 58.7568 26.8455C59.0046 26.5209 59.1953 26.1772 59.2906 25.8335C59.405 25.4898 59.4431 25.108 59.4431 24.707V19.3608H63.9995V25.0507C63.9995 25.5853 63.9423 26.1008 63.847 26.6163C63.7326 27.1319 63.5229 27.6856 63.1798 28.2966C62.8366 28.9075 62.3981 29.4422 61.8452 29.8813C61.2924 30.3395 60.5298 30.7023 59.5575 31.0078C58.5661 31.3133 57.4413 31.4661 56.164 31.4661H55.5158C54.2003 31.4661 53.0374 31.3133 52.046 31.0078C51.0547 30.7023 50.273 30.3205 49.7392 29.8813C49.1863 29.4231 48.7479 28.9075 48.4047 28.2775C48.0615 27.6665 47.8518 27.1128 47.7565 26.5972C47.6612 26.1199 47.623 25.5853 47.623 25.0507Z" fill="black"/>
<path d="M75.3428 27.5519H69.9666V31.2942H65.4102V19.3608H75.3428C79.1176 19.3608 81.005 20.6783 81.005 23.3132V23.5614C81.005 26.2154 79.1176 27.5519 75.3428 27.5519ZM69.9666 22.3394V24.5733H74.809C75.8194 24.5733 76.3151 24.2106 76.3151 23.485V23.4277C76.3151 22.7022 75.8194 22.3394 74.809 22.3394H69.9666Z" fill="black"/>
<path d="M91.9483 27.5519H86.5721V31.2942H82.0156V19.3608H91.9483C95.7231 19.3608 97.6105 20.6783 97.6105 23.3132V23.5614C97.6105 26.2154 95.7231 27.5519 91.9483 27.5519ZM86.5721 22.3394V24.5733H91.4145C92.4249 24.5733 92.9206 24.2106 92.9206 23.485V23.4277C92.9206 22.7022 92.4249 22.3394 91.4145 22.3394H86.5721Z" fill="black"/>
<path d="M98.6406 19.3418H103.197V27.8575H111.452V31.2752H98.6406V19.3418Z" fill="black"/>
<path d="M114.044 31.2752V26.7882L107.523 19.3418H112.976L116.446 23.466L119.992 19.3418H124.968L118.581 26.8264V31.2943H114.044V31.2752Z" fill="black"/>
<path d="M132.575 3.20769C134.348 3.20769 135.778 4.6397 135.778 6.41539V33.6808C135.778 35.4565 134.348 36.8885 132.575 36.8885H6.40571C4.6327 36.8885 3.20285 35.4565 3.20285 33.6808V6.41539C3.20285 4.6397 4.6327 3.20769 6.40571 3.20769H132.575ZM132.575 0H6.40571C2.85969 0 0 2.8831 0 6.41539V33.6808C0 37.2131 2.85969 40.0962 6.40571 40.0962H132.594C136.121 40.0962 139 37.2131 139 33.6808V6.41539C138.981 2.8831 136.121 0 132.575 0Z" fill="black"/>
</g>
<defs>
<clipPath id="clip0_78_977">
<rect width="139" height="40.0962" fill="white"/>
</clipPath>
</defs>
</svg>
